<svg width="128" height="128" viewBox="0 0 128 128" fill="none" xmlns="http://www.w3.org/2000/svg">
  <!-- Background gradient -->
  <defs>
    <linearGradient id="bgGradient" x1="0%" y1="0%" x2="100%" y2="100%">
      <stop offset="0%" style="stop-color:#007AFF;stop-opacity:1" />
      <stop offset="100%" style="stop-color:#0051D5;stop-opacity:1" />
    </linearGradient>
  </defs>
  
  <!-- Rounded square background -->
  <rect width="128" height="128" rx="28" fill="url(#bgGradient)"/>
  
  <!-- Sparkle icon (✨) -->
  <g transform="translate(64, 64)">
    <!-- Main star -->
    <path d="M 0,-24 L 3,-8 L 18,-5 L 6,4 L 8,18 L 0,10 L -8,18 L -6,4 L -18,-5 L -3,-8 Z" 
          fill="white" opacity="0.95"/>
    
    <!-- Small sparkles -->
    <circle cx="-20" cy="-20" r="3" fill="white" opacity="0.8"/>
    <circle cx="22" cy="-18" r="2.5" fill="white" opacity="0.7"/>
    <circle cx="-22" cy="20" r="2" fill="white" opacity="0.6"/>
    <circle cx="20" cy="22" r="2.5" fill="white" opacity="0.75"/>
  </g>
  
  <!-- Chat bubble outline -->
  <path d="M 32,70 L 32,90 C 32,94 34,96 38,96 L 50,96 L 56,104 L 62,96 L 90,96 C 94,96 96,94 96,90 L 96,70 C 96,66 94,64 90,64 L 38,64 C 34,64 32,66 32,70 Z" 
        fill="white" opacity="0.3"/>
</svg>
